<svg xmlns="http://www.w3.org/2000/svg" viewBox="0 0 1280 1280">
  <rect width="1280" height="1280" fill="black"/>
  <g transform="translate(0,1280) scale(0.1,-0.1)" fill="white" stroke="none">
    <path d="M5962 11219 c-522 -19 -954 -72 -1308 -159 -213 -52 -341 -97 -499 -174 -281 -137 -442 -304 -516 -531 -20 -63 -22 -95 -27 -325 -5 -294 11 -723 33 -890 42 -318 101 -504 236 -743 131 -231 234 -350 774 -899 762 -775 939 -969 967 -1060 21 -70 -18 -146 -169 -333 -98 -121 -142 -169 -679 -741 -457 -486 -582 -627 -709 -798 -347 -468 -419 -756 -408 -1641 5 -410 15 -463 126 -664 233 -424 919 -671 2035 -732 285 -15 1082 -6 1332 15 844 73 1397 239 1717 514 88 76 152 161 214 284 82 164 92 215 94 488 6 903 -56 1219 -311 1602 -155 232 -292 389 -859 978 -508 528 -610 639 -711 773 -87 115 -124 184 -124 229 0 44 41 111 143 238 109 135 166 196 725 779 592 618 682 721 798 917 129 217 197 388 239 598 46 231 50 300 50 851 0 584 2 565 -77 717 -170 328 -667 554 -1438 652 -438 57 -1063 77 -1648 55z"/>
  </g>
</svg>
