<svg xmlns="http://www.w3.org/2000/svg" viewBox="-12.92 25.15 238.92 238.92">
  <defs>
    <linearGradient id="sablia-warm" x1="0%" y1="0%" x2="100%" y2="100%">
      <stop offset="0%" stop-color="#1a2e4e"/>
      <stop offset="100%" stop-color="#c45a2c"/>
    </linearGradient>
  </defs>
  <path fill="url(#sablia-warm)" fill-rule="evenodd" d="M 16.90,245.97 C 14.16,245.97 12.41,244.52 11.88,241.84 L 11.47,239.77 C 10.94,237.09 11.46,234.40 12.94,232.10 L 61.50,156.71 C 66.78,148.51 66.89,139.61 61.83,131.28 L 14.88,54.10 C 13.75,52.24 13.34,50.08 13.71,47.94 L 13.99,46.28 C 14.36,44.14 15.73,42.98 17.91,42.98 L 193.28,42.98 C 197.55,42.98 199.68,45.27 199.37,49.54 L 199.14,52.81 C 198.83,57.08 197.42,61.31 195.11,64.90 L 151.78,132.37 C 146.52,140.57 146.39,149.49 151.43,157.83 L 198.05,235.09 C 200.19,238.64 199.24,241.31 195.34,242.72 L 192.35,243.80 C 188.45,245.21 184.12,245.97 179.97,245.97 Z M 176.35,235.33 C 182.85,235.33 184.53,232.34 181.14,226.80 L 112.22,113.94 C 108.83,108.40 105.11,108.35 101.58,113.80 L 91.06,130.05 C 89.41,132.60 87.66,132.58 86.07,129.99 L 84.84,128.01 C 83.25,125.42 83.27,122.65 84.90,120.09 L 99.49,97.22 C 100.57,95.52 102.01,93.95 103.59,92.72 L 105.97,90.88 C 106.81,90.23 107.79,90.10 108.76,90.52 L 109.52,90.84 C 110.49,91.26 111.32,91.97 111.87,92.87 L 132.16,126.08 C 135.55,131.62 139.25,131.66 142.74,126.17 L 183.59,61.99 C 187.08,56.50 185.46,53.55 178.96,53.55 L 36.40,53.55 C 29.90,53.55 28.23,56.53 31.63,62.08 L 100.81,174.94 C 104.21,180.49 107.95,180.54 111.51,175.10 L 121.99,159.05 C 123.65,156.50 125.39,156.54 126.95,159.16 L 128.14,161.17 C 129.70,163.79 129.64,166.57 127.95,169.11 L 110.01,196.24 C 109.07,197.67 107.65,198.30 105.96,198.03 L 104.65,197.82 C 102.96,197.55 101.57,196.62 100.68,195.16 L 80.87,162.75 C 77.48,157.21 73.78,157.17 70.29,162.66 L 29.40,226.89 C 25.91,232.38 27.53,235.33 34.03,235.33 Z"/>
</svg>
