<svg xmlns="http://www.w3.org/2000/svg" xml:space="preserve" viewBox="0 0 210 297" fill="white"><path d="M10.33 251.59c-2.82-1.05-4.3-4.82-3.11-7.88.22-.59 1.43-2.69 2.68-4.67 2.61-4.17 5.4-8.67 8.18-13.22 3.63-5.95 5.23-8.56 6.95-11.34 3.4-5.5 10.82-17.56 12-19.5l11.44-18.62 7.05-11.48c3.65-5.98 6.3-10.29 8.32-13.5a72 72 0 0 0 2.2-3.68c.31-.64.17-.92-3.25-6.45A2680 2680 0 0 1 52.77 125l-1.87-3.03-3.21-5.17a1223 1223 0 0 1-6.2-10.1c-1.94-3.2-3.81-6.26-4.16-6.81a2429 2429 0 0 1-9.98-16.1c-.97-1.6-5.64-9.2-7.65-12.42a814 814 0 0 1-5.75-9.34L9.6 54.96c-2.5-4.01-2.8-4.75-2.8-6.69a5.9 5.9 0 0 1 3.01-5.26c.68-.39 7.63-.42 94.09-.42 92.52 0 93.36 0 94.32.5 1.86.96 2.81 2.57 2.97 5.06.14 2.07-.12 2.69-3.14 7.48a394 394 0 0 0-3.37 5.47 854 854 0 0 1-4.36 7.11 4043 4043 0 0 0-13.5 21.95 1492 1492 0 0 1-6.55 10.61c-3.63 5.83-9.55 15.47-15.55 25.3-1.46 2.4-3.28 5.32-4.04 6.5s-2.62 4.2-4.13 6.7-3.18 5.2-3.71 6.03c-.54.83-.98 1.63-.98 1.78s.6 1.24 1.33 2.42a728 728 0 0 1 4.07 6.67l4.22 6.94a6956 6956 0 0 1 12.97 21.06 2982 2982 0 0 0 10.4 16.93l3.73 6.06c1.12 1.8 3.14 5.1 4.5 7.32a625 625 0 0 0 3.7 6.05c2.82 4.5 4 6.41 5.22 8.46a421 421 0 0 0 6.1 9.85 68 68 0 0 1 2.44 4.17c.7 1.37.76 1.67.68 3.41-.1 2.26-.78 3.57-2.43 4.71l-1.02.7-93.25.05c-79 .05-93.39 0-94.19-.3m187.9-.95a5.3 5.3 0 0 0 2.45-4.95c-.2-1.44-.65-2.35-3.17-6.33a480 480 0 0 1-6.42-10.46l-3.33-5.43-4.2-6.84a6336 6336 0 0 0-15.42-25.05 2105 2105 0 0 1-9.41-15.33l-3.37-5.48c-.63-1-2.55-4.13-4.27-6.94s-3.41-5.58-3.76-6.13c-.95-1.53-5.64-9.25-6.07-10-.37-.64-.34-.72.97-2.78a466 466 0 0 0 3.97-6.4 692 692 0 0 1 4.28-6.95c1.74-2.76 6.29-10.16 9.71-15.77 3.2-5.26 6.22-10.15 8-13l2.99-4.8 5.04-8.2A1542 1542 0 0 0 183 78.75l4.51-7.32c1.72-2.81 3.6-5.85 4.17-6.75l3.08-5.05 3.92-6.4c1.84-2.98 1.86-3.02 1.86-4.68 0-2.05-.62-3.32-2.15-4.43l-1.05-.77-92.78-.07c-66.32-.06-93.05 0-93.7.2a5.5 5.5 0 0 0-3.01 2.7 7 7 0 0 0 .06 4.44c.22.44 1.24 2.17 2.27 3.84L21 72.09c.4.67 1.34 2.2 2.1 3.4l2.82 4.58a6041 6041 0 0 0 17.44 28.32c1.19 2.05 1.97 3.33 3.9 6.39 2.16 3.4 3.68 5.86 8.5 13.75l3.73 6.06 2.72 4.42 3.05 4.92c1.64 2.64 2.13 3.85 1.63 4.08-.23.1-1.52 2.11-4.07 6.33l-7.42 12.1-7.8 12.69-7.5 12.25-6.21 10.1a600 600 0 0 0-5.62 9.1l-2.5 4.08a17372.67 17372.67 0 0 1-10.6 17.23l-3.67 5.93c-3.7 5.96-3.85 6.26-3.95 7.96a4.9 4.9 0 0 0 2.5 4.88c.68.38 7.73.42 92.75.54 50.61.07 92.63.06 93.37-.03s1.67-.33 2.06-.54M21.85 240.48c0-.36 2.53-4.62 3.24-5.46.19-.23.39-.52.44-.65.1-.27 3.89-6.46 7.14-11.7 1.25-2 3.11-5.01 4.12-6.68l3.26-5.3 4.02-6.56c2.67-4.36 4.34-7.07 9.43-15.33l4.77-7.77c2.59-4.24 5.33-8.7 8.07-13.12 2.58-4.17 3.51-5.7 5.22-8.57.67-1.12 1.35-2.03 1.5-2.03s.97 1.16 1.81 2.58a181 181 0 0 0 2.66 4.36 359 359 0 0 1 5.32 8.58c.83 1.39 2.22 3.66 3.09 5.05s2.78 4.51 4.27 6.94 3.43 5.57 4.3 6.97a391 391 0 0 1 3.31 5.4 47 47 0 0 0 2.43 3.72 5.1 5.1 0 0 0 6.15 1.29c.84-.42 1.32-.94 2.17-2.34.6-.98 1.45-2.36 1.9-3.05s2.19-3.54 3.9-6.31l4.96-8.08c4.7-7.62 8.88-14.56 8.84-14.67-.09-.24-4.7-7.57-5.33-8.47l-.66-.93-.77 1.3c-.93 1.59-4.64 7.66-7.42 12.17l-3.88 6.31c-4.95 8.06-5.67 9.19-5.97 9.3-.32.13-.66-.38-4.82-7.15l-3.28-5.3a267 267 0 0 1-2.48-4.04c-.62-1.04-2.8-4.62-4.85-7.95l-5.54-9.09-3.08-5.05-2.46-3.98-2.72-4.39a44 44 0 0 1-1.52-2.51c0-.05-.84-1.43-1.86-3.06a644 644 0 0 1-4.34-7l-1.67-2.72-2.45-4.04a458 458 0 0 0-3.17-5.17l-2.62-4.23-4.95-8a3044 3044 0 0 1-11.97-19.47l-2.1-3.4a1546.72 1546.72 0 0 1-13.8-22.49 70 70 0 0 0-1.79-2.84 5 5 0 0 1-.82-1.6c0-.34 9.04-.38 82.17-.38 60.86 0 82.17.08 82.17.29 0 .32-.86 1.79-5.1 8.66l-8.5 13.81-4.97 8.08-8.06 13.08-3 4.92-3.72 6.06c-2.42 3.9-8.7 14.1-13.18 21.45-3.38 5.56-4.34 7.02-4.67 7.13-.15.04-1.4-1.76-2.77-4.03l-3.34-5.5-1.55-2.52c-.4-.62-1.95-3.18-3.48-5.68l-4.1-6.69-3.37-5.42c-1.14-1.8-2.38-3.85-2.77-4.55-.69-1.23-4.33-7.14-5.57-9.04a5.1 5.1 0 0 0-4.45-2.09 6 6 0 0 0-3.82 2.37c-.35.52-1.79 2.87-3.2 5.23a784 784 0 0 1-8.49 13.88c-4.38 6.95-8.13 13.38-8.01 13.7.13.35 2.1 3.65 4.48 7.52l1.19 1.92 1.16-1.85 3.46-5.64 3.7-6.06 9.32-15.33c.15-.24.44-.44.64-.44s1.25 1.47 2.38 3.35c1.1 1.83 3.29 5.41 4.86 7.95l5.16 8.43c1.27 2.1 2.81 4.62 3.43 5.6s1.87 3.05 2.77 4.58c1.57 2.65 2.57 4.3 4.87 7.95.57.9 3.84 6.24 7.28 11.86 8.68 14.2 14.84 24.21 17.52 28.52 1.25 2.01 3.95 6.42 6 9.79a974 974 0 0 0 5.72 9.32c1.1 1.76 2 3.28 2 3.37s.22.36.49.62c.27.25.48.55.48.66s.32.7.7 1.28.97 1.54 1.3 2.1 1.15 1.85 1.8 2.88c.65 1.04 1.24 2 1.31 2.15.14.30 1.53 2.55 2.88 4.68.49.76 1.04 1.7 1.23 2.08s.44.7.55.7.2.12.2.27.31.75.7 1.33.95 1.5 1.29 2.06l2.31 3.78c3.57 5.8 4.94 8.13 4.94 8.42 0 .22-19.58.30-82.17.30-72.18 0-82.17-.05-82.17-.38m161.36-3.77a439 439 0 0 0-3.59-5.83 146 146 0 0 1-2-3.22 486 486 0 0 0-6.13-10.04 182 182 0 0 1-2.32-3.74 500 500 0 0 0-3.66-5.91 814 814 0 0 1-5.69-9.27 739 739 0 0 0-4.44-7.28l-2.72-4.41-3.37-5.47c-1.08-1.74-2.87-4.63-3.97-6.44s-2.78-4.53-3.73-6.06a3092 3092 0 0 1-12.66-20.63l-3.12-5.11c-2-3.2-2.37-3.8-3.56-5.8a554 554 0 0 0-5.2-8.54 453 453 0 0 1-3.23-5.30 577 577 0 0 0-4.03-6.6 631 631 0 0 1-4.7-7.64 8 8 0 0 0-1.09-1.58c-.17 0-.73.9-4.49 7.2a293 293 0 0 1-3.77 6.18c-.5.76-1.97 3.14-3.27 5.30-6.64 10.98-6.72 11.1-7.49 9.78a472 472 0 0 0-4.57-7.5 11 11 0 0 1-1.19-2.23c0-.34 5.63-9.74 9.7-16.2a134 134 0 0 0 2.46-4.05c.26-.48 1.37-2.30 2.45-4.03a305 305 0 0 0 3.68-6.06c2.63-4.5 3.58-5.30 6.32-5.33 2.55-.03 4.49 1.2 5.7 3.63.22.45 1.35 2.35 2.5 4.22l4.75 7.7 3.75 6.1c2.28 3.69 5.99 9.74 9.86 16.11a490 490 0 0 0 4.32 7.05c.32.45.42.35 1.52-1.52 1.13-1.92 3.94-6.51 6.08-9.95.56-.9 2.6-4.2 4.5-7.32a4531 4531 0 0 1 12.5-20.31c.7-1.11 2.33-3.78 3.64-5.93 1.30-2.16 4.55-7.44 7.22-11.74s5.73-9.30 6.82-11.1a319 319 0 0 1 3.2-5.18c.66-1.04 2.1-3.37 3.18-5.17l1.98-3.29H22.69l3.5 5.68 6.07 9.85 3.57 5.8 3.09 5.05c2.45 4.04 15.92 25.9 19.3 31.3 1.02 1.63 5.78 9.4 7.8 12.74a1801 1801 0 0 0 9.92 16.14l3.17 5.13a985 985 0 0 1 4.9 8.01 3211 3211 0 0 0 13.56 22.21l5.66 9.2.84 1.36.5-.86 2.38-3.9c11.39-18.5 14.21-23.13 14.55-23.78.45-.9 1.05-.67 1.96.76 3.4 5.35 5.36 8.62 5.36 8.96 0 .38-2.23 4.1-10.7 17.85l-6.8 11.05c-2.82 4.6-3.36 5.33-4.35 5.93-.94.58-1.4.69-2.83.68a5.4 5.4 0 0 1-2.55-.47c-.89-.48-2.68-2.13-2.68-2.47 0-.1-.84-1.55-1.88-3.22l-3.79-6.12-11.54-18.76-6.8-11.06-1.82-2.98-1.51 2.48-2.37 3.87-14.17 22.97-8.74 14.26c-3.5 5.75-8.34 13.63-11.24 18.3-3.07 4.94-4.88 7.89-5.9 9.61a181 181 0 0 1-2.14 3.46c-.56.9-1.03 1.73-1.03 1.85s-.09.22-.2.22-.36.30-.55.68-.82 1.43-1.4 2.34l-1.07 1.65 6.17.12c3.4.07 39.98.14 81.30.15l75.13.02z"/></svg>