<svg xmlns="http://www.w3.org/2000/svg" viewBox="0 0 360 96" role="img" aria-label="Sablia">
  <defs><linearGradient id="sablia-mark" gradientUnits="userSpaceOnUse" x1="0" y1="0" x2="1890" y2="1984"><stop offset="0" stop-color="#cc785c"/><stop offset="1" stop-color="#a9583e"/></linearGradient></defs>
  <g transform="translate(8 16) scale(0.03226)">
    <path fill="url(#sablia-mark)" fill-rule="evenodd" d="M148.8 74h71.6l49.9-.1h204l47.8-.1h316.4l237.2-.1 170.3-.1h223.9l109.9-.1h181.4c22.3.2 36.1 15.5 46 33.8 9.7 21.3 1.9 42.5-10.2 60.8l-2.2 3.3-4 6q-4.1 6.2-7.8 12.7l-3.3 5.2-8.2 13.3q-5.6 9.4-11.5 18.5l-3.5 5.5-7.5 11.5a349 349 0 0 0-16 26q-7.6 12.9-16.1 25.1-6.2 9.3-11.9 18.9l-3.3 5.2-8.2 13.3q-4.8 8.1-9.8 15.9l-3.5 5.5q-3.8 6.2-8.3 12.2a156 156 0 0 0-8.9 13.9l-12 20-2.9 4.9q-5.3 8.7-11.1 17.1c-12.9 19.2-12.9 19.2-17.5 27.5q-4.5 7.9-9.5 15.5l-3.5 5.5-7.5 11.5q-11.3 17.1-21.6 34.8-6 9.8-12.4 19.2l-4 6-6.1 9.1q-6.2 9.3-11.9 18.9l-6 10-2.9 4.9q-5.3 8.7-11.1 17.1-13.5 20-25.6 40.8-6 9.8-12.4 19.2-13.5 20-25.6 40.8-5 8.2-10.4 16.2l-9 14-3.5 5.5-1.8 2.8-3.4 5.3q-5 7.9-9.8 15.9a295 295 0 0 1-10.7 16.7q-2.6 4-5.1 8.3c-2.7 4.5-2.7 4.5-4.7 7a66 66 0 0 0-5.5 8.3q-4.1 7.2-8.5 14.2l-2.8 4.7q-6 9.7-12.2 19.3a234 234 0 0 0-25 50l-1.2 3.2a276 276 0 0 0-12.5 45.1q-1.3 7.9-1.9 15.8c-.4 5.9-.4 5.9-1.4 8.9l-.2 10.7v32.6a19 19 0 0 0 1.2 7.7l.3 5.5c1.6 22.1 8.5 43.7 15.7 64.5l1.2 3.6c3.9 11.3 8.1 22.4 14.8 32.4l3.5 6q5.1 8.8 10.5 17.2 6.7 10.1 12.4 20.8t12.7 21l8.7 14.4 5.9 9.5q4.4 6.9 8.3 14.1l6 10 8.9 14.9q3.3 5.7 7.1 11.1a386 386 0 0 1 10 16l2.7 4.5q4.3 7.1 8.2 14.4 5.2 9.6 11.3 18.5 4.1 6.1 7.8 12.6l3 5 3 5 2.9 4.8 7.1 12.2q7.5 13.3 16 26.1 4.2 6.4 8 12.9l3.5 5.6a209 209 0 0 1 8.5 14.4l6 10 14.9 24.9q3.3 5.5 7 10.9 6.4 9.8 12.1 20.2 7.1 12.8 15 25l13 21 3.5 5.6a209 209 0 0 1 8.5 14.4 462 462 0 0 0 20 33.1q4.2 6.4 8 12.9l2.9 4.8 7.1 12.2q8.1 14.2 17 28l3.5 5.6 1.8 2.7q2.5 4 4.8 8.2c2.9 4.5 2.9 4.5 5.6 6.5 3.6 3.2 3.9 7.5 5.3 12q6.3 12 14.1 23.2 4.1 6.3 7.9 12.8 4.6 8 9.5 15.6a209 209 0 0 1 8.5 14.4q6.5 12 14.1 23.2 4.1 6.3 7.9 12.8l3 5 3 5 2.7 4.5c17.1 28.6 25.4 54.8 11.3 86.5l-1.2 2.8a59 59 0 0 1-53.2 32.7h-14.2l-7.9.1-21.8-.1-23.8.1h-346.6l-69.5.1H843.3l-154.2.1h-69.6l-154.9.1H196.2c-5.2.1-5.2.1-10.2.7-4 .4-4 .4-7-.6l-7.4-.1-4.5-.1h-9.4a72 72 0 0 1-38.7-10.8l-3-1.8c-6-3.8-10.7-7.4-15-13.2l-2.9-3.4c-24.6-36-16.3-73.5 3.7-109.1q3.3-5 7.2-9.5 8.5-12.1 16-25l8.7-13.7 15.4-23.5 2.1-3.2 1.9-2.9c1.9-2.7 1.9-2.7 3.9-5.2q4.4-6 8-12.5a314 314 0 0 1 19.2-29.3q3.9-5.3 7.2-11 4.6-7.4 9.6-14.7 7.6-11.3 15-23c12.7-20.2 12.7-20.2 17-25.4 5.9-7.5 10.7-16 15.5-24.2 9.1-15.1 9.1-15.1 14.4-21.8q8.4-10.8 15.2-22.8 4.3-7 8.9-13.8l5-8c4-6.6 8-13.3 12.9-19.4 6.8-8.6 12.5-18.1 18.1-27.6a493 493 0 0 1 14.1-21.4q9-12.5 17-25.8 4.2-7 8.9-13.8 5.5-8.3 10.8-16.8 5.2-8.3 11.2-16.2 9-13.2 17-27.1 4.2-6.6 9-12.9l5.9-8.8 6.2-9.3q3.6-5.4 6.9-10.9 4.3-7.2 9-14l5-8c4-6.6 8-13.3 12.9-19.4q8.4-10.8 15.2-22.8 4.2-7 8.9-13.8 2.8-4.2 5.2-8.4a645 645 0 0 0 27.3-41.1l6.5-10.5 6.5-10.5q4.5-7.1 8.5-14.5l1.6-3a231 231 0 0 0 24.4-84l1-3 .5-9.5c.4-9.1.4-9.1 1.5-12.5l.1-10v-5.4c-.1-4.6-.1-4.6-1.1-7.6l-.4-8.7c-.3-7.4-1.2-14.3-2.8-21.5q-1-4.7-1.8-9.5c-5.8-35.7-20.5-66.7-39-97.3l-3.2-5.3-2.8-4.7-3-4.9q-3-5.2-6.3-10.3-4.2-6.4-8.2-13.2a367 367 0 0 0-10.7-16.8q-7.3-11.5-13.9-23.4-6.6-11.5-14-22.4-4.1-6.4-7.9-13l-3-5-3-5-2.9-4.7-7.1-12.3a465 465 0 0 0-16-26 376 376 0 0 1-14.9-24.3q-4.4-7.7-9-15.2l-3.7-6.2q-5-8.4-10.5-16.3-4.1-6.4-7.9-13l-3.6-5.5q-4.4-7.1-8.4-14.5-6.5-11.8-14.2-23.2-4-6.2-7.8-12.8l-3.3-5.2a494 494 0 0 1-16.8-28q-5.2-9-10.9-17.8-6.7-10.3-13-21l-3.5-5.3q-3.7-6-7-12.2-4.9-8.9-10.5-17.5a857 857 0 0 1-16-25.9q-3.2-5.4-6.6-10.6-4.4-7.1-8.4-14.5-5.8-9.7-12.1-19-4.1-6.4-7.9-13l-3-5-24-39.9q-4.8-8-10-16.1a614 614 0 0 1-17-28 433 433 0 0 0-16.1-26q-4.1-6.4-7.9-13l-3.4-5.2q-7.5-12-14.2-24.5-6.7-12-14.5-23.3-4.2-6.4-7.9-13l-2.3-3.6c-8.4-16.2-5.4-39.5 4.5-54.2l3.8-4.2 3.9-4.5A50 50 0 0 1 148.8 74m117.6 122.1c-5.3 17.4.1 32.4 9.6 47l2.1 3.4 4.6 7.2 7.6 11.8 3.3 5.2a641 641 0 0 1 18.5 30.7 323 323 0 0 0 14.4 23.2l5.2 8.1a790 790 0 0 1 20.4 34.2q6.6 11.4 13.9 22.3 4.1 6.4 8 12.9l3 5 11.9 20 10.1 16 13 21 3.5 5.6a209 209 0 0 1 8.5 14.4 385 385 0 0 0 9.3 15.2l8.2 13.3q6.3 10.6 13.1 21 5.5 8.5 10.3 17.5a213 213 0 0 0 11.2 18.3q3.7 5.4 7.2 11l3.4 5.4q6 9.3 11.4 19 3.8 6.7 7.9 13.3l8.9 14.9q3.3 5.7 7.1 11.1 8.5 13 16 26.6 7.2 12.4 15 24.4l13 21 3.5 5.6a209 209 0 0 1 8.5 14.4q6.5 12 14 23.2a573 573 0 0 1 24.1 39.6l7.9 13.2 2.9 4.9q4.2 7.2 9.1 14.1a451 451 0 0 1 19.6 32.8q6.8 12 14.4 23.3 4.1 6.4 8 12.9 4.6 8 9.5 15.6a209 209 0 0 1 8.5 14.4l6 10 2.9 4.9q3.3 5.7 7.1 11.1a386 386 0 0 1 10 16q4.6 8 9.5 15.6a209 209 0 0 1 8.5 14.4q6.3 10.7 13 21 9.5 14.6 17.9 29.9 6 11 13.1 21.1 7.3 10.8 14 22l2.9 4.8 7.1 12.2q7.5 13.3 16 26.1 4.1 6.4 8 12.9l3.4 5.3q4.9 7.8 9.5 16.1 8 14.3 17.2 27.9 4.1 6.2 7.9 12.7 4.2 6.9 8.6 13.5 5.5 8.5 10.3 17.5a239 239 0 0 0 15.1 24.3 45 45 0 0 0 12 13.7l3.8 3.2a45 45 0 0 0 44.2 1.8 67 67 0 0 0 19-20.5q4.2-6.5 9-12.5l6-8 2.7-3.5q5.7-7.8 10.9-16 3-4.3 6.4-8.5l4.9-7.3q5.2-8 11.1-15.7l3-4 5.9-7.7q5.7-8 11.1-16.3 8-12.2 16.9-23.7 4.8-6.6 9.1-13.4c2-2.9 2-2.9 3.9-5.3q3.6-4.6 6.8-9.6l2.7-4 4.8-7.6 2-3.2 1.8-3c2.6-2.8 4.2-3.2 8-3.2 3.9 3 3.9 3 8 7l3.7 3.6c2.9 3.1 5 5.9 7.3 9.4l3.3 4.5c4.5 6.4 7.6 13.4 10.7 20.5l1.5 3.5c11.4 28 6 58.1-10.5 82.5l-4 6-2.1 3.1-8.9 13.9-13 20-4.2 6.3-2.1 3.2-1.9 2.8c-1.8 2.7-1.8 2.7-3.8 5.1-5.6 7.1-10.5 15-15.1 22.8q-5.3 8.6-10.9 16.8l-4 6-16 24-2 3-4.1 6.1q-5.8 8.7-11.4 17.5-7 10.7-14.4 21-5.3 7.6-10.1 15.4l-5 7.4q-4.4 6.4-8.3 13.1a76 76 0 0 1-8.7 11.5l-1.8 2.5c-4.3 4.9-10.5 7.5-16.2 10.5l-5.1 2.9c-20.7 9-44.2 2.7-61.6-10.4-17-17.9-29.3-41.9-41.5-63.3q-6.5-11.3-13.8-22.2a538 538 0 0 1-22.1-36.2q-5.2-9-10.9-17.8a564 564 0 0 1-16.3-26.2 560 560 0 0 1-16.8-28q-4.7-8.2-10.1-16-4-6.2-7.8-12.8l-3.3-5.2q-6.6-10.2-12.7-20.8l-3.2-5.3-5.7-9.5q-4.4-7.3-9.1-14.2-7-10.5-13.6-21.5l-2.3-3.9-3.7-6.5c-7.9-14.6-24-19.7-39.8-19.4-16.9 1.4-26.4 10.8-35.5 24.5l-2.6 4-9.5 14.8-13 20-4.2 6.3-2.1 3.2-1.9 2.8c-1.8 2.7-1.8 2.7-3.8 5.2-5.9 7.5-10.7 16-15.6 24.2a352 352 0 0 1-16.4 25.3l-6.1 9.1-11.2 17.2-5.3 8.3-6.4 10.4q-4.2 7-8.9 13.9l-8.3 12.4c-1.8 2.7-1.8 2.7-3.8 5.2a75 75 0 0 0-5.5 8.3q-8.7 15-18.5 29.2l-6.1 9.1-4 6q-6.2 9.3-11.9 18.9l-7 11-1.7 2.7-13.3 20.3-6 9-4.1 6.1q-4.7 6.9-8.9 13.9-4.3 7.2-9 14l-7.5 11.6-5.5 8.4-2.4 3.9c-2.6 4.1-2.6 4.1-5.6 8q-4.9 6.8-9 14.1-8.7 15.3-19.3 29.3-3.8 5.3-7.1 11-2.7 4.5-5.6 8.7l-7 11q-5.3 8.7-11 17l-4 6-8 12-2 3-4 6q-5.4 7.8-10 16-5.6 9.8-12 19l-4 6-8 12-2 3-4.1 6.1q-6.2 9.3-11.9 18.9l-5.2 8.2-3.7 5.8-1.8 2.9-1.6 2.6c-1.7 2.5-1.7 2.5-3.7 4.9a43 43 0 0 0-6.1 45.3 41 41 0 0 0 37.9 22.5H429l117.2.1h298.9l192.7.1h231.4l88.6.1h222.4c21.3.1 35.1-3.6 45.8-23.5 2.2-6.7 1.3-14.5 1.3-21.5l.1-5.1c0-12.3-.2-22.5-9.9-31.2l-2.8-2.7-2.7-2.5c-6.7-6.4-10.7-14.2-15.3-22.1-15-25.5-15-25.5-23.6-28-4.2-2.5-3.5-3.5-3.6-8.2-.2-8.8-3.7-13.7-8.5-20.7l-4.2-7.2-2-3.6-4.3-7.8q-4.1-6.8-8.5-13.4-4.2-6.3-8-13l-3.4-5.2q-5-8-9.5-16.1l-11.1-18.7-3.1-5.2-9.9-15.8a631 631 0 0 1-19.1-31.6l-7.9-13.4-2.9-4.8-7.1-11.2q-5.2-7.8-10-16l-3-5-3-5-2.9-4.7-7.1-12.2q-5.3-9.2-11-18.1-6.7-10.4-13-21l-3-5-12-19.9q-3-5.2-6.3-10.3-5.5-8.5-10.5-17.1l-6-9.5q-4.3-7-8.2-14.2l-6-10-2.9-4.8-7.1-11.2q-5.2-7.8-10-16l-3-5-6-9.9q-3.1-5.4-6.6-10.6-4.4-7.1-8.4-14.5-5.7-9.7-12.1-19-4.1-6.4-7.9-13l-3.5-5.3a159 159 0 0 1-7-12.1q-4.3-8.1-9.6-15.7-4.6-6.8-8.9-13.9l-1.8-2.8q-5.8-9-11.2-18.2l-2.9-4.7-7-12.1q-4.8-8.4-10.2-16.3a591 591 0 0 1-24.1-39.7q-6.5-11.3-13.9-22.2-4.1-6.4-7.9-13l-3.3-5.2a560 560 0 0 1-16.8-28q-4.7-8.2-10.1-16-4-6.3-7.8-12.8l-3.3-5.2a494 494 0 0 1-16.8-28q-5.2-9-10.9-17.8l-3.5-5.4q-3.7-5.9-7.6-11.6a446 446 0 0 1-16-26.6q-6.6-11.5-14-22.4-4.1-6.4-7.9-13-4.6-7.8-9.6-15.5-4.4-7.1-8.4-14.5-5.7-9.7-12.1-19-4.1-6.4-7.9-13l-3.3-5.2a618 618 0 0 1-14.4-23.6l-9.5-15.4-5.3-8.2-1.7-2.8-3.6-5.7c-12.9-20.4-26.8-29.4-51.2-27.1-10.3 2-18.7 8-24 17l-5 6q-5.8 7.6-11.2 15.5l-5.1 7.2-8.8 13q-5.2 7.8-10.9 15.3l-6.1 9.2q-2.8 4-5.9 7.8a273 273 0 0 0-15.5 22q-4.6 7.1-9.5 14l-3.6 5.2-6.2 8.5q-5.6 7.8-10.9 15.8-3 4.4-6.3 8.5l-4.9 7.3q-5.3 8-11.1 15.7l-2 3-2 3.1-1.9 2.9c-3.1 2.9-4.2 2.5-8.1 1a93 93 0 0 1-22-26l-1.9-2.2a78 78 0 0 1-14.9-44.2c-.2-3.6-.2-3.6-.8-7.3-.4-3.3-.4-3.3.6-6.3l.4-7c1.1-17.9 10.5-32.6 20.6-47l4-6 6-8.9q5.3-7.7 10-16.1 5.6-9.7 12-19l6.1-9.3 5.9-7.7 5-8 2.4-3.8 5.3-8.7q6.3-10.4 13.3-20.5l4.1-6.2 7.9-11.8 2-3 4-6q6.3-9.3 12-19a313 313 0 0 1 20-30 391 391 0 0 0 15.5-24.6q3.7-6.6 8.5-12.4l1.9-2.5c2.4-2.9 4.9-4.5 8.1-6.5l3.9-2.5c16.5-10 36.6-13 54.1-3.5l4.7 2.5a62 62 0 0 1 23.3 24.5q8.7 14.5 18.2 28.3 9.5 14.3 17.8 29.3 6.6 11.5 14 22.4l9 14 1.8 2.8q7.8 12.4 15.1 25.2a292 292 0 0 0 18.3 28.4c4 5.7 7.2 11.7 10.6 17.8q2.7 4.8 5.9 9.1 4.2 6.3 7.7 12.9 4 7.1 8.6 13.8l3.4 5.5 7.6 11.6q7.4 11.2 14 22.9c4.9 8.7 9.9 17 16 25l8.8 13.9c13.5 21.5 26.3 32 52.2 30.1 19.5-4.5 28.7-20.3 39-36l4.2-6.3q5.1-7.7 9.8-15.7 6.6-11.1 14-22a825 825 0 0 0 21.8-34.3q4.5-7.4 9.2-14.7l3.4-5.4q6.7-10.4 13.6-20.6c11-16.5 11-16.5 15.5-24.5q4.5-7.9 9.5-15.5l3.4-5.4 7.6-11.6q9.2-14 17.8-28.3 4.5-7.4 9.2-14.7l3.4-5.4q6.7-10.3 13.6-20.5 6.4-9.6 12.1-19.8 7.4-13 15.9-25.3a898 898 0 0 0 25.6-40.7q5.9-9.8 12.4-19.3 10.2-14.9 19.4-30.4a367 367 0 0 1 10.7-16.8l4.9-7.8q4.3-7 9-14 10.3-15.5 19.6-31.7 5.9-9.8 12.4-19.3a898 898 0 0 0 25.6-40.7q5-8.4 10.4-16.3 2.7-4 5-8 4.3-7 9-14c29.9-44.7 29.9-44.7 19-68a40 40 0 0 0-35.6-19.3l-5.8-.1H857.1l-208.5-.1h-351a42 42 0 0 0-31.2 22.5"/>
  </g>
  <text x="80" y="62" font-family="Cormorant Garamond, Garamond, Times New Roman, serif" font-size="48" font-weight="500" letter-spacing="-1" fill="#f0ede6">Sablia</text>
</svg>
